<svg width="89" height="90" viewBox="0 0 89 90" fill="none" xmlns="http://www.w3.org/2000/svg">
<path d="M29.6667 67.5H35.2292V60H42.6458V54.375H35.2292V46.875H29.6667V54.375H22.25V60H29.6667V67.5ZM48.2083 64.6875H66.75V59.0625H48.2083V64.6875ZM48.2083 55.3125H66.75V49.6875H48.2083V55.3125ZM52.2875 41.0625L57.4792 35.8125L62.6708 41.0625L66.5646 37.125L61.3729 31.6875L66.5646 26.4375L62.6708 22.5L57.4792 27.75L52.2875 22.5L48.3937 26.4375L53.5854 31.6875L48.3937 37.125L52.2875 41.0625ZM23.1771 34.5H41.7188V28.875H23.1771V34.5ZM18.5417 78.75C16.5021 78.75 14.7561 78.0156 13.3036 76.5469C11.8512 75.0781 11.125 73.3125 11.125 71.25V18.75C11.125 16.6875 11.8512 14.9219 13.3036 13.4531C14.7561 11.9844 16.5021 11.25 18.5417 11.25H70.4583C72.4979 11.25 74.2439 11.9844 75.6964 13.4531C77.1488 14.9219 77.875 16.6875 77.875 18.75V71.25C77.875 73.3125 77.1488 75.0781 75.6964 76.5469C74.2439 78.0156 72.4979 78.75 70.4583 78.75H18.5417ZM18.5417 71.25H70.4583V18.75H18.5417V71.25Z" fill="#FFFFFB"/>
</svg>
